<svg width="140" height="140" viewBox="0 0 140 140" fill="none" xmlns="http://www.w3.org/2000/svg">
<path d="M42.9827 11.8702C57.8227 -2.96975 81.8829 -2.96975 96.7229 11.8702L127.836 42.9829C112.996 57.8228 88.9354 57.8228 74.0954 42.9829L42.9827 11.8702Z" fill="#764AF1"/>
<path d="M96.7229 127.836C81.8829 142.676 57.8227 142.676 42.9827 127.836L11.87 96.7229C26.71 81.883 50.7702 81.883 65.6102 96.7229L96.7229 127.836Z" fill="#764AF1"/>
<path d="M127.836 42.9829C142.675 57.8228 142.675 81.8828 127.835 96.7227L96.7229 127.836C81.8829 112.996 81.8827 88.9352 96.7226 74.0953L127.836 42.9829Z" fill="#764AF1"/>
<path d="M11.87 96.7229C-2.96988 81.883 -2.96961 57.8225 11.8703 42.9826L42.9827 11.8702C57.8227 26.7101 57.8229 50.7701 42.983 65.61L11.87 96.7229Z" fill="#764AF1"/>
</svg>
