<svg width="178" height="150" viewBox="0 0 178 150" fill="none" xmlns="http://www.w3.org/2000/svg">
<path style="mix-blend-mode:color-dodge" d="M21.2406 92.3038L5 76.0703V49.9256L14.4975 40.4281V31.209L19.5209 26.1855L30.0387 15.6677H38.8512L49.5189 5H70.2192H93.8879H108.202L117.999 14.8043H127.461L135.117 22.4536H145.071L166.514 43.896V55.9766L173.128 62.5984V78.8389V92.3038L167.912 97.527H156.082L165.579 107.024L146.727 125.877L140.669 131.935H130.215L126.084 136.059H113.154L122.095 145H102.693L92.0326 134.339V122.794H80.1305V112.669H64.1682L52.0591 100.56V93.9521L21.2406 92.3038Z" fill="url(#paint0_radial_283_4708)"/>
<path d="M84.0151 44.7729H103.636L120.606 62.2729M89.3182 56.4396L116.894 84.0154L129.091 71.8184" stroke="white"/>
<g filter="url(#filter0_d_283_4708)">
<path d="M21.2406 92.3038L5 76.0703V49.9256L14.4975 40.4281V31.209L19.5209 26.1855L30.0387 15.6677H38.8512L49.5189 5H70.2192H93.8879H108.202L117.999 14.8043H127.461L135.117 22.4536H145.071L166.514 43.896V55.9766L173.128 62.5984V78.8389V92.3038L167.912 97.527H156.082L165.579 107.024L146.727 125.877L140.669 131.935H130.215L126.084 136.059H113.154L122.095 145H102.693L92.0326 134.339V122.794H80.1305V112.669H64.1682L52.0591 100.56V93.9521L21.2406 92.3038Z" stroke="white" stroke-width="0.67" stroke-linecap="round" stroke-linejoin="round"/>
</g>
<path d="M111.648 130.578C111.648 131.456 110.942 132.162 110.064 132.162C109.187 132.162 108.48 131.456 108.48 130.578C108.48 129.701 109.187 128.994 110.064 128.994C110.942 128.994 111.648 129.701 111.648 130.578Z" fill="white"/>
<path d="M117.442 124.528C117.442 125.406 116.736 126.113 115.858 126.113C114.981 126.113 114.274 125.406 114.274 124.528C114.274 123.651 114.981 122.944 115.858 122.944C116.736 122.944 117.442 123.651 117.442 124.528Z" fill="white"/>
<path d="M122.808 116.964C122.808 117.842 122.102 118.549 121.224 118.549C120.347 118.549 119.64 117.842 119.64 116.964C119.64 116.087 120.347 115.38 121.224 115.38C122.102 115.38 122.808 116.087 122.808 116.964Z" fill="white"/>
<path d="M141.805 97.7965C141.805 98.6742 141.098 99.3806 140.22 99.3806C139.343 99.3806 138.636 98.6742 138.636 97.7965C138.636 96.9188 139.343 96.2124 140.22 96.2124C141.098 96.2124 141.805 96.9188 141.805 97.7965Z" fill="white"/>
<path d="M119.027 106.753C119.027 107.631 118.32 108.337 117.443 108.337C116.565 108.337 115.859 107.631 115.859 106.753C115.859 105.875 116.565 105.169 117.443 105.169C118.32 105.169 119.027 105.875 119.027 106.753Z" fill="white"/>
<path d="M141.896 83.8981C141.896 84.7757 141.19 85.4822 140.312 85.4822C139.434 85.4822 138.728 84.7757 138.728 83.8981C138.728 83.0204 139.434 82.314 140.312 82.314C141.19 82.314 141.896 83.0204 141.896 83.8981Z" fill="white"/>
<path d="M151.907 88.0079C151.907 88.8856 151.201 89.592 150.323 89.592C149.445 89.592 148.739 88.8856 148.739 88.0079C148.739 87.1303 149.445 86.4238 150.323 86.4238C151.201 86.4238 151.907 87.1303 151.907 88.0079Z" fill="white"/>
<path d="M164.077 62.7965C164.077 63.6742 163.371 64.3806 162.493 64.3806C161.616 64.3806 160.909 63.6742 160.909 62.7965C160.909 61.9188 161.616 61.2124 162.493 61.2124C163.371 61.2124 164.077 61.9188 164.077 62.7965Z" fill="white"/>
<path d="M154.027 51.5235C154.027 52.4012 153.32 53.1076 152.442 53.1076C151.565 53.1076 150.858 52.4012 150.858 51.5235C150.858 50.6459 151.565 49.9395 152.442 49.9395C153.32 49.9395 154.027 50.6459 154.027 51.5235Z" fill="white"/>
<path d="M130.465 28.1481C130.465 29.0257 129.759 29.7322 128.881 29.7322C128.003 29.7322 127.297 29.0257 127.297 28.1481C127.297 27.2704 128.003 26.564 128.881 26.564C129.759 26.564 130.465 27.2704 130.465 28.1481Z" fill="white"/>
<path d="M151.907 75.5924C151.907 76.4701 151.201 77.1765 150.323 77.1765C149.445 77.1765 148.739 76.4701 148.739 75.5924C148.739 74.7147 149.445 74.0083 150.323 74.0083C151.201 74.0083 151.907 74.7147 151.907 75.5924Z" fill="white"/>
<g filter="url(#filter1_d_283_4708)">
<path d="M130.465 71.8956C130.465 72.7733 129.759 73.4797 128.881 73.4797C128.003 73.4797 127.297 72.7733 127.297 71.8956C127.297 71.0179 128.003 70.3115 128.881 70.3115C129.759 70.3115 130.465 71.0179 130.465 71.8956Z" fill="white"/>
</g>
<path d="M122.016 62.0343C122.016 62.912 121.31 63.6184 120.432 63.6184C119.555 63.6184 118.848 62.912 118.848 62.0343C118.848 61.1566 119.555 60.4502 120.432 60.4502C121.31 60.4502 122.016 61.1566 122.016 62.0343Z" fill="white"/>
<path d="M84.4833 43.8966C84.4833 44.7743 83.7768 45.4807 82.8992 45.4807C82.0215 45.4807 81.3151 44.7743 81.3151 43.8966C81.3151 43.0189 82.0215 42.3125 82.8992 42.3125C83.7768 42.3125 84.4833 43.0189 84.4833 43.8966Z" fill="white"/>
<path d="M75.5067 55.8263C75.5067 56.704 74.8003 57.4104 73.9226 57.4104C73.0449 57.4104 72.3385 56.704 72.3385 55.8263C72.3385 54.9486 73.0449 54.2422 73.9226 54.2422C74.8003 54.2422 75.5067 54.9486 75.5067 55.8263Z" fill="white"/>
<path d="M89.0643 57.4104C89.9392 57.4104 90.6484 56.7012 90.6484 55.8263C90.6484 54.9514 89.9392 54.2422 89.0643 54.2422C88.1895 54.2422 87.4802 54.9514 87.4802 55.8263C87.4802 56.7012 88.1895 57.4104 89.0643 57.4104Z" fill="white"/>
<path d="M112.348 36.0538C112.348 36.9315 111.641 37.6379 110.764 37.6379C109.886 37.6379 109.179 36.9315 109.179 36.0538C109.179 35.1761 109.886 34.4697 110.764 34.4697C111.641 34.4697 112.348 35.1761 112.348 36.0538Z" fill="white"/>
<path d="M52.2163 43.8966C52.2163 44.7743 51.5099 45.4807 50.6322 45.4807C49.7545 45.4807 49.0481 44.7743 49.0481 43.8966C49.0481 43.0189 49.7545 42.3125 50.6322 42.3125C51.5099 42.3125 52.2163 43.0189 52.2163 43.8966Z" fill="white"/>
<path d="M38.9258 50.0695C38.9258 50.9471 38.2193 51.6535 37.3417 51.6535C36.464 51.6535 35.7576 50.9471 35.7576 50.0695C35.7576 49.1918 36.464 48.4854 37.3417 48.4854C38.2193 48.4854 38.9258 49.1918 38.9258 50.0695Z" fill="white"/>
<path d="M22.7391 71.1822C22.7391 72.0599 22.0327 72.7663 21.155 72.7663C20.2773 72.7663 19.5709 72.0599 19.5709 71.1822C19.5709 70.3046 20.2773 69.5981 21.155 69.5981C22.0327 69.5981 22.7391 70.3046 22.7391 71.1822Z" fill="white"/>
<path d="M38.9258 72.6466C38.9258 73.5243 38.2193 74.2307 37.3417 74.2307C36.464 74.2307 35.7576 73.5243 35.7576 72.6466C35.7576 71.7689 36.464 71.0625 37.3417 71.0625C38.2193 71.0625 38.9258 71.7689 38.9258 72.6466Z" fill="white"/>
<path d="M32.1581 81.8214C32.1581 82.6991 31.4516 83.4055 30.574 83.4055C29.6963 83.4055 28.9899 82.6991 28.9899 81.8214C28.9899 80.9437 29.6963 80.2373 30.574 80.2373C31.4516 80.2373 32.1581 80.9437 32.1581 81.8214Z" fill="white"/>
<path d="M54.8348 50.5533C54.8348 51.431 54.1284 52.1374 53.2507 52.1374C52.373 52.1374 51.6666 51.431 51.6666 50.5533C51.6666 49.6757 52.373 48.9692 53.2507 48.9692C54.1284 48.9692 54.8348 49.6757 54.8348 50.5533Z" fill="white"/>
<path d="M54.8348 72.7667C54.8348 73.6444 54.1284 74.3508 53.2507 74.3508C52.373 74.3508 51.6666 73.6444 51.6666 72.7667C51.6666 71.889 52.373 71.1826 53.2507 71.1826C54.1284 71.1826 54.8348 71.889 54.8348 72.7667Z" fill="white"/>
<path d="M50.3181 16.4025C50.3181 17.2801 49.6117 17.9866 48.734 17.9866C47.8563 17.9866 47.1499 17.2801 47.1499 16.4025C47.1499 15.5248 47.8563 14.8184 48.734 14.8184C49.6117 14.8184 50.3181 15.5248 50.3181 16.4025Z" fill="white"/>
<path d="M34.6127 39.8219C34.6127 40.6996 33.9062 41.406 33.0286 41.406C32.1509 41.406 31.4445 40.6996 31.4445 39.8219C31.4445 38.9442 32.1509 38.2378 33.0286 38.2378C33.9062 38.2378 34.6127 38.9442 34.6127 39.8219Z" fill="white"/>
<path d="M41.047 28.8575C41.047 29.7352 40.3406 30.4416 39.4629 30.4416C38.5852 30.4416 37.8788 29.7352 37.8788 28.8575C37.8788 27.9799 38.5852 27.2734 39.4629 27.2734C40.3406 27.2734 41.047 27.9799 41.047 28.8575Z" fill="white"/>
<path d="M95.1379 28.8575C95.1379 29.7352 94.4315 30.4416 93.5538 30.4416C92.6761 30.4416 91.9697 29.7352 91.9697 28.8575C91.9697 27.9799 92.6761 27.2734 93.5538 27.2734C94.4315 27.2734 95.1379 27.9799 95.1379 28.8575Z" fill="white"/>
<path d="M69.8053 64.5958C69.8053 65.4735 69.0989 66.1799 68.2212 66.1799C67.3435 66.1799 66.6371 65.4735 66.6371 64.5958C66.6371 63.7181 67.3435 63.0117 68.2212 63.0117C69.0989 63.0117 69.8053 63.7181 69.8053 64.5958Z" fill="white"/>
<path d="M99.7961 94.3444C99.7961 95.222 99.0897 95.9285 98.212 95.9285C97.3344 95.9285 96.6279 95.222 96.6279 94.3444C96.6279 93.4667 97.3344 92.7603 98.212 92.7603C99.0897 92.7603 99.7961 93.4667 99.7961 94.3444Z" fill="white"/>
<path d="M82.0357 95.5284C82.0357 96.4061 81.3293 97.1125 80.4516 97.1125C79.574 97.1125 78.8676 96.4061 78.8676 95.5284C78.8676 94.6508 79.574 93.9443 80.4516 93.9443C81.3293 93.9443 82.0357 94.6508 82.0357 95.5284Z" fill="white"/>
<path d="M69.2987 95.5284C69.2987 96.4061 68.5923 97.1125 67.7146 97.1125C66.8369 97.1125 66.1305 96.4061 66.1305 95.5284C66.1305 94.6508 66.8369 93.9443 67.7146 93.9443C68.5923 93.9443 69.2987 94.6508 69.2987 95.5284Z" fill="white"/>
<path d="M109.836 101.737C109.836 102.615 109.129 103.321 108.252 103.321C107.374 103.321 106.668 102.615 106.668 101.737C106.668 100.859 107.374 100.153 108.252 100.153C109.129 100.153 109.836 100.859 109.836 101.737Z" fill="white"/>
<path d="M118.684 27.7555C118.684 28.6332 117.978 29.3396 117.1 29.3396C116.222 29.3396 115.516 28.6332 115.516 27.7555C115.516 26.8778 116.222 26.1714 117.1 26.1714C117.978 26.1714 118.684 26.8778 118.684 27.7555Z" fill="white"/>
<path d="M149.181 101.737C149.181 102.615 148.475 103.321 147.597 103.321C146.72 103.321 146.013 102.615 146.013 101.737C146.013 100.859 146.72 100.153 147.597 100.153C148.475 100.153 149.181 100.859 149.181 101.737Z" fill="white"/>
<path d="M95.4006 114.275C95.4006 115.152 94.6942 115.859 93.8165 115.859C92.9388 115.859 92.2324 115.152 92.2324 114.275C92.2324 113.397 92.9388 112.69 93.8165 112.69C94.6942 112.69 95.4006 113.397 95.4006 114.275Z" fill="white"/>
<path d="M129.091 28.334L152.424 51.6673M150.303 88.2582H162.5V63.334" stroke="white"/>
<path style="mix-blend-mode:color-dodge" d="M128.881 82.4206C134.694 82.4206 139.406 77.7084 139.406 71.8956C139.406 66.0828 134.694 61.3706 128.881 61.3706C123.068 61.3706 118.356 66.0828 118.356 71.8956C118.356 77.7084 123.068 82.4206 128.881 82.4206Z" fill="url(#paint1_radial_283_4708)"/>
<path style="mix-blend-mode:color-dodge" d="M68.2212 71.6178C72.0045 71.6178 75.0714 68.5509 75.0714 64.7676C75.0714 60.9844 72.0045 57.9175 68.2212 57.9175C64.438 57.9175 61.3711 60.9844 61.3711 64.7676C61.3711 68.5509 64.438 71.6178 68.2212 71.6178Z" fill="url(#paint2_radial_283_4708)"/>
<path style="mix-blend-mode:color-dodge" d="M121.231 123.814C125.015 123.814 128.082 120.747 128.082 116.964C128.082 113.181 125.015 110.114 121.231 110.114C117.448 110.114 114.381 113.181 114.381 116.964C114.381 120.747 117.448 123.814 121.231 123.814Z" fill="url(#paint3_radial_283_4708)"/>
<path style="mix-blend-mode:color-dodge" d="M67.7147 102.172C71.4979 102.172 74.5648 99.1056 74.5648 95.3223C74.5648 91.5391 71.4979 88.4722 67.7147 88.4722C63.9314 88.4722 60.8645 91.5391 60.8645 95.3223C60.8645 99.1056 63.9314 102.172 67.7147 102.172Z" fill="url(#paint4_radial_283_4708)"/>
<path style="mix-blend-mode:color-dodge" d="M33.0286 46.5069C36.8119 46.5069 39.8788 43.44 39.8788 39.6568C39.8788 35.8736 36.8119 32.8066 33.0286 32.8066C29.2454 32.8066 26.1785 35.8736 26.1785 39.6568C26.1785 43.44 29.2454 46.5069 33.0286 46.5069Z" fill="url(#paint5_radial_283_4708)"/>
<path style="mix-blend-mode:color-dodge" d="M107.997 22.7371C111.496 21.2979 113.165 17.2948 111.726 13.796C110.287 10.2972 106.284 8.62765 102.785 10.0669C99.2863 11.5061 97.6167 15.5092 99.0559 19.008C100.495 22.5067 104.498 24.1763 107.997 22.7371Z" fill="url(#paint6_radial_283_4708)"/>
<path style="mix-blend-mode:color-dodge" d="M93.1458 46.3329C94.4899 40.6777 90.9951 35.0036 85.3398 33.6594C79.6846 32.3153 74.0105 35.8101 72.6663 41.4654C71.3222 47.1206 74.817 52.7947 80.4723 54.1389C86.1275 55.483 91.8016 51.9882 93.1458 46.3329Z" fill="url(#paint7_radial_283_4708)"/>
<line x1="49.5454" y1="16.167" x2="105.758" y2="16.167" stroke="white"/>
<path d="M105.758 16.1367L116.894 27.8034" stroke="white"/>
<line x1="111.414" y1="36.4648" x2="150.657" y2="75.7072" stroke="white"/>
<line x1="40" y1="28.8936" x2="94.0909" y2="28.8936" stroke="white"/>
<path d="M117.424 106.818L140.227 84.0144" stroke="white"/>
<line x1="121.313" y1="117.07" x2="140.404" y2="97.9794" stroke="white"/>
<line x1="37.3182" y1="50.6064" x2="37.3182" y2="71.8186" stroke="white"/>
<line x1="53.2273" y1="50.6064" x2="53.2273" y2="71.8186" stroke="white"/>
<path d="M51.1364 44.2425H62.2728L73.4092 55.3788M30.4546 81.894H67.0455L80.8334 95.6818M21.4395 71.2879V46.3637L32.5758 39.4697" stroke="white"/>
<path d="M116.364 124.849H125.909L147.652 102.046M94.0909 114.773L110 130.682M68.1061 97.2732L76.0606 102.046H108.409M69.697 66.5156L98.3334 94.6217" stroke="white"/>
<defs>
<filter id="filter0_d_283_4708" x="0.665039" y="0.665039" width="176.798" height="148.67" filterUnits="userSpaceOnUse" color-interpolation-filters="sRGB">
<feFlood flood-opacity="0" result="BackgroundImageFix"/>
<feColorMatrix in="SourceAlpha" type="matrix" values="0 0 0 0 0 0 0 0 0 0 0 0 0 0 0 0 0 0 127 0" result="hardAlpha"/>
<feOffset/>
<feGaussianBlur stdDeviation="2"/>
<feColorMatrix type="matrix" values="0 0 0 0 1 0 0 0 0 1 0 0 0 0 1 0 0 0 1 0"/>
<feBlend mode="normal" in2="BackgroundImageFix" result="effect1_dropShadow_283_4708"/>
<feBlend mode="normal" in="SourceGraphic" in2="effect1_dropShadow_283_4708" result="shape"/>
</filter>
<filter id="filter1_d_283_4708" x="123.277" y="66.2915" width="11.2082" height="11.208" filterUnits="userSpaceOnUse" color-interpolation-filters="sRGB">
<feFlood flood-opacity="0" result="BackgroundImageFix"/>
<feColorMatrix in="SourceAlpha" type="matrix" values="0 0 0 0 0 0 0 0 0 0 0 0 0 0 0 0 0 0 127 0" result="hardAlpha"/>
<feOffset/>
<feGaussianBlur stdDeviation="2.01"/>
<feColorMatrix type="matrix" values="0 0 0 0 1 0 0 0 0 1 0 0 0 0 1 0 0 0 0.89 0"/>
<feBlend mode="normal" in2="BackgroundImageFix" result="effect1_dropShadow_283_4708"/>
<feBlend mode="normal" in="SourceGraphic" in2="effect1_dropShadow_283_4708" result="shape"/>
</filter>
<radialGradient id="paint0_radial_283_4708" cx="0" cy="0" r="1" gradientUnits="userSpaceOnUse" gradientTransform="translate(96.6565 59.6086) scale(179.303 179.303)">
<stop stop-color="#808080"/>
<stop offset="1"/>
</radialGradient>
<radialGradient id="paint1_radial_283_4708" cx="0" cy="0" r="1" gradientUnits="userSpaceOnUse" gradientTransform="translate(128.881 71.8956) scale(10.525)">
<stop stop-color="white"/>
<stop offset="1"/>
</radialGradient>
<radialGradient id="paint2_radial_283_4708" cx="0" cy="0" r="1" gradientUnits="userSpaceOnUse" gradientTransform="translate(68.2212 64.7676) scale(6.85015 6.85015)">
<stop stop-color="white"/>
<stop offset="1"/>
</radialGradient>
<radialGradient id="paint3_radial_283_4708" cx="0" cy="0" r="1" gradientUnits="userSpaceOnUse" gradientTransform="translate(121.231 116.964) scale(6.85015)">
<stop stop-color="white"/>
<stop offset="1"/>
</radialGradient>
<radialGradient id="paint4_radial_283_4708" cx="0" cy="0" r="1" gradientUnits="userSpaceOnUse" gradientTransform="translate(67.7147 95.3223) scale(6.85015 6.85015)">
<stop stop-color="white"/>
<stop offset="1"/>
</radialGradient>
<radialGradient id="paint5_radial_283_4708" cx="0" cy="0" r="1" gradientUnits="userSpaceOnUse" gradientTransform="translate(33.0286 39.6568) scale(6.85015 6.85015)">
<stop stop-color="white"/>
<stop offset="1"/>
</radialGradient>
<radialGradient id="paint6_radial_283_4708" cx="0" cy="0" r="1" gradientUnits="userSpaceOnUse" gradientTransform="translate(105.39 16.3983) scale(6.85015 6.85015)">
<stop stop-color="white"/>
<stop offset="1"/>
</radialGradient>
<radialGradient id="paint7_radial_283_4708" cx="0" cy="0" r="1" gradientUnits="userSpaceOnUse" gradientTransform="translate(82.905 43.8979) scale(10.525 10.525)">
<stop stop-color="white"/>
<stop offset="1"/>
</radialGradient>
</defs>
</svg>
