<svg width="221" height="40" viewBox="0 0 221 40" fill="none" xmlns="http://www.w3.org/2000/svg">
<path fill-rule="evenodd" clip-rule="evenodd" d="M60.4845 13.4783C56.399 13.4783 53.0871 16.7875 53.0871 20.8696C53.0871 24.9517 56.399 28.2609 60.4845 28.2609C64.5699 28.2609 67.8818 24.9517 67.8818 20.8696C67.8818 16.7875 64.5699 13.4783 60.4845 13.4783ZM47.8654 20.8696C47.8654 13.906 53.5151 8.26087 60.4845 8.26087C67.4538 8.26087 73.1035 13.906 73.1035 20.8696C73.1035 27.8332 67.4538 33.4783 60.4845 33.4783C53.5151 33.4783 47.8654 27.8332 47.8654 20.8696Z" fill="#010101"/>
<path fill-rule="evenodd" clip-rule="evenodd" d="M107.044 13.4783C102.959 13.4783 99.6471 16.7875 99.6471 20.8696C99.6471 24.9517 102.959 28.2609 107.044 28.2609C111.13 28.2609 114.442 24.9517 114.442 20.8696C114.442 16.7875 111.13 13.4783 107.044 13.4783ZM94.4254 20.8696C94.4254 13.906 100.075 8.26087 107.044 8.26087C114.014 8.26087 119.664 13.906 119.664 20.8696C119.664 27.8332 114.014 33.4783 107.044 33.4783C100.075 33.4783 94.4254 27.8332 94.4254 20.8696Z" fill="#010101"/>
<path fill-rule="evenodd" clip-rule="evenodd" d="M77.8901 23.4657C77.8901 15.2703 84.3738 8.58813 92.4955 8.26087V13.4848C87.259 13.8069 83.1117 18.1524 83.1117 23.4657V32.8329C83.1117 33.0425 83.1182 33.2505 83.1309 33.4569H77.9026C77.8943 33.2499 77.8901 33.0419 77.8901 32.8329V23.4657Z" fill="#010101"/>
<path d="M173.621 20.8696C173.621 16.7875 176.933 13.4783 181.018 13.4783C183.845 13.4783 186.302 15.0627 187.547 17.3913H193.151C191.64 12.1193 186.78 8.26087 181.018 8.26087C174.049 8.26087 168.399 13.906 168.399 20.8696C168.399 27.8332 174.049 33.4783 181.018 33.4783C186.78 33.4783 191.64 29.6198 193.151 24.3478H187.547C186.302 26.6764 183.845 28.2609 181.018 28.2609C176.933 28.2609 173.621 24.9517 173.621 20.8696Z" fill="#010101"/>
<path d="M201.47 20.8696C201.47 16.7875 204.782 13.4783 208.867 13.4783C211.694 13.4783 214.151 15.0627 215.396 17.3913H221C219.489 12.1193 214.629 8.26087 208.867 8.26087C201.898 8.26087 196.248 13.906 196.248 20.8696C196.248 27.8332 201.898 33.4783 208.867 33.4783C214.629 33.4783 219.489 29.6198 221 24.3478H215.396C214.151 26.6764 211.694 28.2609 208.867 28.2609C204.782 28.2609 201.47 24.9517 201.47 20.8696Z" fill="#010101"/>
<path d="M135.329 33.4769H137.836V28.2595H135.329C132.925 28.2595 130.977 26.3129 130.977 23.9116V12.6087H125.755V23.9116C125.755 29.1944 130.041 33.4769 135.329 33.4769Z" fill="#010101"/>
<path d="M130.977 2.17391V12.6087L120.534 12.6087L130.977 2.17391Z" fill="#010101"/>
<path fill-rule="evenodd" clip-rule="evenodd" d="M137.504 12.6087H127.931V8.26087H137.504V12.6087Z" fill="#010101"/>
<path fill-rule="evenodd" clip-rule="evenodd" d="M162.539 17.9613L144.828 28.1787L142.217 23.6603L159.928 13.4429L162.539 17.9613Z" fill="#010101"/>
<path d="M146.16 24.3977C144.117 20.8625 145.33 16.3421 148.868 14.301C152.406 12.2599 156.93 13.4712 158.973 17.0064C159.432 17.8017 159.727 18.6468 159.868 19.5024L164.566 16.792C164.298 15.9745 163.942 15.1723 163.495 14.3977C160.01 8.36706 152.293 6.30081 146.257 9.78261C140.221 13.2644 138.153 20.9758 141.638 27.0064C145.123 33.0371 152.84 35.1033 158.876 31.6215C161.665 30.0127 163.607 27.5009 164.545 24.6692L158.81 24.6692C158.191 25.6432 157.334 26.4863 156.265 27.1031C152.727 29.1442 148.203 27.9329 146.16 24.3977Z" fill="#010101"/>
<path fill-rule="evenodd" clip-rule="evenodd" d="M20.0164 40C31.0712 40 40.0329 31.0457 40.0329 20C40.0329 8.95431 31.0712 0 20.0164 0C8.96167 0 0 8.95431 0 20C0 31.0457 8.96167 40 20.0164 40ZM28.6714 20.8699C28.703 20.5843 28.7192 20.294 28.7192 20C28.7192 15.6778 25.2125 12.1739 20.8867 12.1739C17.4696 12.1739 14.5636 14.3604 13.4935 17.4095C13.3486 17.3975 13.2021 17.3913 13.0542 17.3913C10.1703 17.3913 7.83252 19.7272 7.83252 22.6087C7.83252 25.4902 10.1703 27.8261 13.0542 27.8261H28.7192C30.6418 27.8261 32.2004 26.2688 32.2004 24.3478C32.2004 22.4268 30.6418 20.8696 28.7192 20.8696C28.7033 20.8696 28.6873 20.8697 28.6714 20.8699Z" fill="#764AF1"/>
</svg>
