<svg
  xmlns="http://www.w3.org/2000/svg"
  width="221"
  height="40"
  viewBox="0 0 221 40"
  fill="none"
>
<path
  fill="#010101"
  fillRule="evenodd"
  d="M60.484 13.478a7.394 7.394 0 0 0-7.397 7.392 7.394 7.394 0 0 0 7.397 7.39 7.394 7.394 0 0 0 7.398-7.39 7.394 7.394 0 0 0-7.398-7.392ZM47.865 20.87c0-6.964 5.65-12.61 12.62-12.61 6.969 0 12.618 5.646 12.618 12.61 0 6.963-5.65 12.608-12.618 12.608-6.97 0-12.62-5.645-12.62-12.608ZM107.044 13.478a7.394 7.394 0 0 0-7.397 7.392 7.394 7.394 0 0 0 7.397 7.39 7.395 7.395 0 0 0 7.398-7.39 7.395 7.395 0 0 0-7.398-7.392ZM94.425 20.87c0-6.964 5.65-12.61 12.619-12.61 6.97 0 12.62 5.646 12.62 12.61 0 6.963-5.65 12.608-12.62 12.608-6.969 0-12.619-5.645-12.619-12.608ZM77.89 23.466c0-8.196 6.484-14.878 14.606-15.205v5.224c-5.237.322-9.384 4.667-9.384 9.98v9.368c0 .21.006.418.019.624h-5.228a15.573 15.573 0 0 1-.013-.624v-9.367Z"
  clipRule="evenodd"
/>
<path
  fill="#010101"
  d="M173.621 20.87a7.394 7.394 0 0 1 7.397-7.392 7.397 7.397 0 0 1 6.529 3.913h5.604c-1.511-5.272-6.371-9.13-12.133-9.13-6.969 0-12.619 5.645-12.619 12.609 0 6.963 5.65 12.608 12.619 12.608 5.762 0 10.622-3.858 12.133-9.13h-5.604a7.397 7.397 0 0 1-6.529 3.913 7.394 7.394 0 0 1-7.397-7.391ZM201.47 20.87a7.394 7.394 0 0 1 7.397-7.392 7.397 7.397 0 0 1 6.529 3.913H221c-1.511-5.272-6.371-9.13-12.133-9.13-6.969 0-12.619 5.645-12.619 12.609 0 6.963 5.65 12.608 12.619 12.608 5.762 0 10.622-3.858 12.133-9.13h-5.604a7.397 7.397 0 0 1-6.529 3.913 7.394 7.394 0 0 1-7.397-7.391ZM135.329 33.477h2.507V28.26h-2.507a4.35 4.35 0 0 1-4.352-4.348V12.609h-5.222v11.303c0 5.282 4.286 9.565 9.574 9.565ZM130.977 2.174v10.435h-10.443l10.443-10.435Z"
/>
<path
  fill="#010101"
  fillRule="evenodd"
  d="M137.504 12.609h-9.573V8.26h9.573v4.348ZM162.539 17.961 144.828 28.18l-2.611-4.519 17.711-10.217 2.611 4.518Z"
  clipRule="evenodd"
/>
<path
  fill="#010101"
  d="M146.16 24.398a7.388 7.388 0 0 1 2.708-10.097 7.4 7.4 0 0 1 11 5.201l4.698-2.71a12.709 12.709 0 0 0-1.071-2.394c-3.485-6.03-11.202-8.097-17.238-4.615-6.036 3.481-8.104 11.193-4.619 17.223 3.485 6.031 11.202 8.097 17.238 4.616a12.562 12.562 0 0 0 5.669-6.953h-5.735a7.4 7.4 0 0 1-12.65-.271Z"
/>
<path
  fill="#764AF1"
  fillRule="evenodd"
  d="M20.016 40c11.055 0 20.017-8.954 20.017-20S31.07 0 20.016 0C8.962 0 0 8.954 0 20s8.962 20 20.016 20Zm8.655-19.13c.032-.286.048-.576.048-.87 0-4.322-3.507-7.826-7.832-7.826a7.835 7.835 0 0 0-7.394 5.236 5.22 5.22 0 0 0-5.661 5.2 5.22 5.22 0 0 0 5.222 5.216H28.72a3.48 3.48 0 0 0 3.481-3.478 3.48 3.48 0 0 0-3.529-3.478Z"
  clipRule="evenodd"
/>
</svg>