<svg width="38" height="24" viewBox="0 0 38 24" fill="none" xmlns="http://www.w3.org/2000/svg">
<path d="M38 15.6958C38 16.8517 37.7703 17.9316 37.3108 18.9354C36.8819 19.9392 36.2846 20.8213 35.5187 21.5817C34.7836 22.3118 33.8952 22.9049 32.8537 23.3612C31.8428 23.7871 30.7707 24 29.6372 24C28.4732 24 27.3857 23.7871 26.3748 23.3612C25.364 22.9354 24.4756 22.3422 23.7098 21.5817C22.944 20.8213 22.3466 19.9392 21.9178 18.9354C21.4889 17.9316 21.2745 16.8517 21.2745 15.6958C21.2745 14.2966 21.4583 12.8669 21.8259 11.4068C22.1935 9.94677 22.6989 8.53232 23.3422 7.1635C24.0161 5.76426 24.7973 4.45627 25.6856 3.23954C26.574 1.9924 27.5389 0.912548 28.5804 0L35.1971 3.42205C34.5538 3.93916 33.8952 4.59316 33.2213 5.38403C32.578 6.14449 32.1951 6.93536 32.0726 7.75665C32.9303 8.03042 33.7267 8.42586 34.4619 8.94297C35.1971 9.46008 35.8251 10.0684 36.3458 10.7681C36.8666 11.4677 37.2648 12.2433 37.5405 13.0951C37.8468 13.9164 38 14.7833 38 15.6958ZM16.7255 15.6958C16.7255 16.8517 16.4958 17.9316 16.0363 18.9354C15.6074 19.9392 15.0101 20.8213 14.2443 21.5817C13.5091 22.3118 12.6207 22.9049 11.5792 23.3612C10.5683 23.7871 9.49617 24 8.36276 24C7.19871 24 6.11125 23.7871 5.10036 23.3612C4.08948 22.9354 3.20113 22.3422 2.43531 21.5817C1.66949 20.8213 1.07215 19.9392 0.643289 18.9354C0.21443 17.9316 0 16.8517 0 15.6958C0 14.2966 0.183797 12.8669 0.551391 11.4068C0.918984 9.94677 1.42443 8.53232 2.06771 7.1635C2.74164 5.76426 3.52277 4.45627 4.41112 3.23954C5.29948 1.9924 6.26441 0.912548 7.30592 0L13.9226 3.42205C13.2793 3.93916 12.6207 4.59316 11.9468 5.38403C11.3035 6.14449 10.9206 6.93536 10.7981 7.75665C11.6558 8.03042 12.4522 8.42586 13.1874 8.94297C13.9226 9.46008 14.5506 10.0684 15.0713 10.7681C15.5921 11.4677 15.9903 12.2433 16.266 13.0951C16.5723 13.9164 16.7255 14.7833 16.7255 15.6958Z" fill="#764AF1"/>
</svg>
