<svg width="40" height="40" viewBox="0 0 40 40" fill="none" xmlns="http://www.w3.org/2000/svg">
<path d="M20.0004 37.9167C19.6004 37.9167 19.2004 37.8667 18.8171 37.7501C10.1671 35.3667 3.90039 27.2833 3.90039 18.5167V11.2C3.90039 9.3333 5.2504 7.31672 6.98373 6.60005L16.2671 2.8C18.6837 1.81667 21.3337 1.81667 23.7337 2.8L33.0171 6.60005C34.7504 7.31672 36.1004 9.3333 36.1004 11.2V18.5167C36.1004 27.2667 29.817 35.3501 21.1837 37.7501C20.8004 37.8667 20.4004 37.9167 20.0004 37.9167ZM20.0004 4.58335C19.0504 4.58335 18.117 4.76671 17.217 5.13337L7.93375 8.93332C7.13375 9.26665 6.40039 10.35 6.40039 11.2166V18.5333C6.40039 26.1833 11.9004 33.25 19.4837 35.35C19.8171 35.4501 20.1837 35.4501 20.5171 35.35C28.1004 33.25 33.6004 26.1833 33.6004 18.5333V11.2166C33.6004 10.35 32.867 9.26665 32.067 8.93332L22.7838 5.13337C21.8838 4.76671 20.9504 4.58335 20.0004 4.58335Z" fill="#F1CC0F"/>
<path d="M19.9993 22.0832C17.466 22.0832 15.416 20.0332 15.416 17.4998C15.416 14.9665 17.466 12.9165 19.9993 12.9165C22.5327 12.9165 24.5827 14.9665 24.5827 17.4998C24.5827 20.0332 22.5327 22.0832 19.9993 22.0832ZM19.9993 15.4165C18.8493 15.4165 17.916 16.3498 17.916 17.4998C17.916 18.6498 18.8493 19.5832 19.9993 19.5832C21.1493 19.5832 22.0827 18.6498 22.0827 17.4998C22.0827 16.3498 21.1493 15.4165 19.9993 15.4165Z" fill="#004225"/>
<path d="M20 27.0835C19.3167 27.0835 18.75 26.5168 18.75 25.8335V20.8335C18.75 20.1502 19.3167 19.5835 20 19.5835C20.6833 19.5835 21.25 20.1502 21.25 20.8335V25.8335C21.25 26.5168 20.6833 27.0835 20 27.0835Z" fill="#004225"/>
</svg>
