<svg width="40" height="40" viewBox="0 0 40 40" fill="none" xmlns="http://www.w3.org/2000/svg">
<path d="M22.3336 29.0335H18.1503C15.4169 29.0335 13.2003 26.7335 13.2003 23.9001C13.2003 23.2168 13.7669 22.6501 14.4503 22.6501C15.1336 22.6501 15.7003 23.2168 15.7003 23.9001C15.7003 25.3501 16.8003 26.5335 18.1503 26.5335H22.3336C23.4169 26.5335 24.3169 25.5668 24.3169 24.4001C24.3169 22.9501 23.8003 22.6668 22.9503 22.3668L16.2336 20.0001C14.9336 19.5501 13.1836 18.5835 13.1836 15.6001C13.1836 13.0335 15.2003 10.9668 17.6669 10.9668H21.8503C24.5836 10.9668 26.8003 13.2668 26.8003 16.1001C26.8003 16.7835 26.2336 17.3501 25.5503 17.3501C24.8669 17.3501 24.3003 16.7835 24.3003 16.1001C24.3003 14.6501 23.2003 13.4668 21.8503 13.4668H17.6669C16.5836 13.4668 15.6836 14.4335 15.6836 15.6001C15.6836 17.0501 16.2003 17.3335 17.0503 17.6335L23.7669 20.0001C25.0669 20.4501 26.8169 21.4168 26.8169 24.4001C26.8003 26.9501 24.8003 29.0335 22.3336 29.0335Z" fill="#004225"/>
<path d="M20 31.25C19.3167 31.25 18.75 30.6833 18.75 30V10C18.75 9.31667 19.3167 8.75 20 8.75C20.6833 8.75 21.25 9.31667 21.25 10V30C21.25 30.6833 20.6833 31.25 20 31.25Z" fill="#004225"/>
<path d="M20.0007 37.9168C10.1173 37.9168 2.08398 29.8835 2.08398 20.0002C2.08398 10.1168 10.1173 2.0835 20.0007 2.0835C29.884 2.0835 37.9173 10.1168 37.9173 20.0002C37.9173 29.8835 29.884 37.9168 20.0007 37.9168ZM20.0007 4.5835C11.5007 4.5835 4.58398 11.5002 4.58398 20.0002C4.58398 28.5002 11.5007 35.4168 20.0007 35.4168C28.5007 35.4168 35.4173 28.5002 35.4173 20.0002C35.4173 11.5002 28.5007 4.5835 20.0007 4.5835Z" fill="#F1CC0F"/>
</svg>
