<svg width="40" height="40" viewBox="0 0 40 40" fill="none" xmlns="http://www.w3.org/2000/svg">
<path d="M29.084 37.9168C27.2007 37.9168 25.2173 37.4668 23.1673 36.6002C21.1673 35.7502 19.1507 34.5835 17.184 33.1668C15.234 31.7335 13.3507 30.1335 11.5673 28.3835C9.80065 26.6002 8.20065 24.7168 6.78398 22.7835C5.35065 20.7835 4.20065 18.7835 3.38398 16.8502C2.51732 14.7835 2.08398 12.7835 2.08398 10.9002C2.08398 9.60016 2.31732 8.36683 2.76732 7.21683C3.23398 6.0335 3.98398 4.9335 5.00065 3.9835C6.28398 2.71683 7.75065 2.0835 9.31732 2.0835C9.96732 2.0835 10.634 2.2335 11.2007 2.50016C11.8507 2.80016 12.4007 3.25016 12.8007 3.85016L16.6673 9.30016C17.0173 9.7835 17.284 10.2502 17.4673 10.7168C17.684 11.2168 17.8007 11.7168 17.8007 12.2002C17.8007 12.8335 17.6173 13.4502 17.2673 14.0335C17.0173 14.4835 16.634 14.9668 16.1507 15.4502L15.0173 16.6335C15.034 16.6835 15.0507 16.7168 15.0673 16.7502C15.2673 17.1002 15.6673 17.7002 16.434 18.6002C17.2507 19.5335 18.0173 20.3835 18.784 21.1668C19.7673 22.1335 20.584 22.9002 21.3507 23.5335C22.3007 24.3335 22.9173 24.7335 23.284 24.9168L23.2507 25.0002L24.4673 23.8002C24.984 23.2835 25.484 22.9002 25.9673 22.6502C26.884 22.0835 28.0507 21.9835 29.2173 22.4668C29.6507 22.6502 30.1173 22.9002 30.6173 23.2502L36.1507 27.1835C36.7673 27.6002 37.2173 28.1335 37.484 28.7668C37.734 29.4002 37.8507 29.9835 37.8507 30.5668C37.8507 31.3668 37.6673 32.1668 37.3173 32.9168C36.9673 33.6668 36.534 34.3168 35.984 34.9168C35.034 35.9668 34.0007 36.7168 32.8007 37.2002C31.6507 37.6668 30.4007 37.9168 29.084 37.9168ZM9.31732 4.5835C8.40065 4.5835 7.55065 4.9835 6.73398 5.7835C5.96732 6.50016 5.43398 7.2835 5.10065 8.1335C4.75065 9.00016 4.58398 9.91683 4.58398 10.9002C4.58398 12.4502 4.95065 14.1335 5.68398 15.8668C6.43398 17.6335 7.48398 19.4668 8.81732 21.3002C10.1507 23.1335 11.6673 24.9168 13.334 26.6002C15.0007 28.2502 16.8007 29.7835 18.6507 31.1335C20.4507 32.4502 22.3007 33.5168 24.134 34.2835C26.984 35.5002 29.6507 35.7835 31.8507 34.8668C32.7007 34.5168 33.4507 33.9835 34.134 33.2168C34.5173 32.8002 34.8173 32.3502 35.0673 31.8168C35.2673 31.4002 35.3673 30.9668 35.3673 30.5335C35.3673 30.2668 35.3173 30.0002 35.184 29.7002C35.134 29.6002 35.034 29.4168 34.7173 29.2002L29.184 25.2668C28.8507 25.0335 28.5507 24.8668 28.2673 24.7502C27.9007 24.6002 27.7507 24.4502 27.184 24.8002C26.8507 24.9668 26.5507 25.2168 26.2173 25.5502L24.9507 26.8002C24.3007 27.4335 23.3007 27.5835 22.534 27.3002L22.084 27.1002C21.4007 26.7335 20.6007 26.1668 19.7173 25.4168C18.9173 24.7335 18.0507 23.9335 17.0007 22.9002C16.184 22.0668 15.3673 21.1835 14.5173 20.2002C13.734 19.2835 13.1673 18.5002 12.8173 17.8502L12.6173 17.3502C12.5173 16.9668 12.484 16.7502 12.484 16.5168C12.484 15.9168 12.7007 15.3835 13.1173 14.9668L14.3673 13.6668C14.7007 13.3335 14.9507 13.0168 15.1173 12.7335C15.2507 12.5168 15.3007 12.3335 15.3007 12.1668C15.3007 12.0335 15.2507 11.8335 15.1673 11.6335C15.0507 11.3668 14.8673 11.0668 14.634 10.7502L10.7673 5.2835C10.6007 5.05016 10.4007 4.8835 10.1507 4.76683C9.88399 4.65016 9.60065 4.5835 9.31732 4.5835ZM23.2507 25.0168L22.984 26.1502L23.434 24.9835C23.3507 24.9668 23.284 24.9835 23.2507 25.0168Z" fill="white"/>
<path d="M30.8333 16.2498C30.15 16.2498 29.5833 15.6832 29.5833 14.9998C29.5833 14.3998 28.9833 13.1498 27.9833 12.0832C27 11.0332 25.9167 10.4165 25 10.4165C24.3167 10.4165 23.75 9.84984 23.75 9.1665C23.75 8.48317 24.3167 7.9165 25 7.9165C26.6167 7.9165 28.3167 8.78317 29.8 10.3665C31.1833 11.8498 32.0833 13.6665 32.0833 14.9998C32.0833 15.6832 31.5167 16.2498 30.8333 16.2498Z" fill="white"/>
<path d="M36.6667 16.2502C35.9833 16.2502 35.4167 15.6835 35.4167 15.0002C35.4167 9.25016 30.75 4.5835 25 4.5835C24.3167 4.5835 23.75 4.01683 23.75 3.3335C23.75 2.65016 24.3167 2.0835 25 2.0835C32.1167 2.0835 37.9167 7.8835 37.9167 15.0002C37.9167 15.6835 37.35 16.2502 36.6667 16.2502Z" fill="white"/>
</svg>
