<svg width="19" height="18" viewBox="0 0 19 18" fill="none" xmlns="http://www.w3.org/2000/svg">
<g opacity="0.5">
<path d="M16.4548 7.5C16.4548 12.75 9.70483 17.25 9.70483 17.25C9.70483 17.25 2.95483 12.75 2.95483 7.5C2.95483 5.70979 3.66599 3.9929 4.93186 2.72703C6.19773 1.46116 7.91462 0.75 9.70483 0.75C11.495 0.75 13.2119 1.46116 14.4778 2.72703C15.7437 3.9929 16.4548 5.70979 16.4548 7.5Z" stroke="white" stroke-linecap="round" stroke-linejoin="round"/>
<path d="M9.70483 9.75C10.9475 9.75 11.9548 8.74264 11.9548 7.5C11.9548 6.25736 10.9475 5.25 9.70483 5.25C8.46219 5.25 7.45483 6.25736 7.45483 7.5C7.45483 8.74264 8.46219 9.75 9.70483 9.75Z" stroke="white" stroke-linecap="round" stroke-linejoin="round"/>
</g>
</svg>
