<svg width="24" height="24" viewBox="0 0 24 24" fill="none" xmlns="http://www.w3.org/2000/svg">
<path d="M12 22.75C17.93 22.75 22.75 17.93 22.75 12C22.75 6.07 17.93 1.25 12 1.25C6.07 1.25 1.25 6.07 1.25 12C1.25 17.93 6.07 22.75 12 22.75ZM12 2.75C17.1 2.75 21.25 6.9 21.25 12C21.25 17.1 17.1 21.25 12 21.25C6.9 21.25 2.75 17.1 2.75 12C2.75 6.9 6.9 2.75 12 2.75Z" fill="#292929"/>
<path d="M10.7401 16.2802C10.9301 16.2802 11.1201 16.2102 11.2701 16.0602L14.8001 12.5302C15.0901 12.2402 15.0901 11.7602 14.8001 11.4702L11.2701 7.94016C10.9801 7.65016 10.5001 7.65016 10.2101 7.94016C9.92008 8.23016 9.92008 8.71016 10.2101 9.00016L13.2101 12.0002L10.2101 15.0002C9.92008 15.2902 9.92008 15.7702 10.2101 16.0602C10.3501 16.2102 10.5401 16.2802 10.7401 16.2802Z" fill="#292929"/>
</svg>
