<svg width="19" height="19" viewBox="0 0 19 19" fill="none" xmlns="http://www.w3.org/2000/svg">
<g opacity="0.5" clip-path="url(#clip0_2924_1276)">
<path d="M11.9924 4.25C12.725 4.39292 13.3982 4.75119 13.926 5.27895C14.4537 5.80671 14.812 6.47995 14.9549 7.2125M11.9924 1.25C13.5144 1.41908 14.9336 2.10063 16.0171 3.18276C17.1006 4.26488 17.7839 5.68326 17.9549 7.205M17.2049 13.19V15.44C17.2058 15.6489 17.163 15.8556 17.0793 16.047C16.9956 16.2384 16.8729 16.4102 16.719 16.5514C16.565 16.6926 16.3833 16.8001 16.1855 16.867C15.9876 16.9339 15.7779 16.9588 15.5699 16.94C13.262 16.6892 11.0452 15.9006 9.09741 14.6375C7.28528 13.486 5.74891 11.9496 4.59741 10.1375C3.32989 8.1809 2.54109 5.95325 2.29491 3.635C2.27616 3.4276 2.30081 3.21857 2.36728 3.02122C2.43375 2.82387 2.54058 2.64252 2.68098 2.48872C2.82138 2.33491 2.99226 2.21203 3.18275 2.12789C3.37324 2.04375 3.57916 2.0002 3.78741 2H6.03741C6.40139 1.99642 6.75425 2.12531 7.03023 2.36265C7.3062 2.59999 7.48646 2.92959 7.53741 3.29C7.63237 4.01005 7.80849 4.71705 8.06241 5.3975C8.16331 5.66594 8.18515 5.95769 8.12534 6.23816C8.06552 6.51863 7.92655 6.77608 7.72491 6.98L6.77241 7.9325C7.84007 9.81016 9.39475 11.3648 11.2724 12.4325L12.2249 11.48C12.4288 11.2784 12.6863 11.1394 12.9667 11.0796C13.2472 11.0198 13.539 11.0416 13.8074 11.1425C14.4879 11.3964 15.1949 11.5725 15.9149 11.6675C16.2792 11.7189 16.612 11.9024 16.8498 12.1831C17.0877 12.4638 17.214 12.8222 17.2049 13.19Z" stroke="white" stroke-linecap="round" stroke-linejoin="round"/>
</g>
<defs>
<clipPath id="clip0_2924_1276">
<rect width="18" height="18" fill="white" transform="translate(0.704834 0.5)"/>
</clipPath>
</defs>
</svg>
