<svg width="24" height="24" viewBox="0 0 24 24" fill="none" xmlns="http://www.w3.org/2000/svg">
<path d="M13.3895 5.20246L14.7995 8.02246C14.9895 8.41246 15.4995 8.78246 15.9295 8.86246L18.4795 9.28246C20.1095 9.55246 20.4895 10.7325 19.3195 11.9125L17.3295 13.9025C16.9995 14.2325 16.8095 14.8825 16.9195 15.3525L17.4895 17.8125C17.9395 19.7525 16.8995 20.5125 15.1895 19.4925L12.7995 18.0725C12.3695 17.8125 11.6495 17.8125 11.2195 18.0725L8.82945 19.4925C7.11945 20.5025 6.07945 19.7525 6.52945 17.8125L7.09945 15.3525C7.18945 14.8725 6.99945 14.2225 6.66945 13.8925L4.67945 11.9025C3.50945 10.7325 3.88945 9.55246 5.51945 9.27246L8.06945 8.85246C8.49945 8.78246 9.00945 8.40246 9.19945 8.01246L10.6095 5.19246C11.3795 3.67246 12.6195 3.67246 13.3895 5.20246Z" fill="#9D9D9D"/>
</svg>
