<svg width="82" height="16" viewBox="0 0 82 16" fill="none" xmlns="http://www.w3.org/2000/svg">
<path d="M9.3899 1.14881L10.8 3.96894C10.99 4.35896 11.5 4.72898 11.93 4.80898L14.4801 5.229C16.1102 5.49902 16.4902 6.67907 15.3202 7.85913L13.3301 9.84922C13.0001 10.1792 12.8101 10.8293 12.9201 11.2993L13.4901 13.7594C13.9401 15.6995 12.9001 16.4595 11.19 15.4395L8.79987 14.0194C8.36985 13.7594 7.64982 13.7594 7.2198 14.0194L4.82968 15.4395C3.1196 16.4495 2.07955 15.6995 2.52957 13.7594L3.0996 11.2993C3.18961 10.8193 2.9996 10.1692 2.66958 9.83922L0.679486 7.84913C-0.49057 6.67907 -0.110551 5.49902 1.51953 5.219L4.06965 4.79898C4.49967 4.72898 5.00969 4.34896 5.1997 3.95894L6.60977 1.13881C7.37981 -0.381265 8.61986 -0.381265 9.3899 1.14881Z" fill="#F1CC0F"/>
<path d="M31.389 1.14881L32.7991 3.96894C32.9891 4.35896 33.4991 4.72898 33.9291 4.80898L36.4792 5.229C38.1093 5.49902 38.4893 6.67907 37.3193 7.85913L35.3292 9.84922C34.9992 10.1792 34.8092 10.8293 34.9192 11.2993L35.4892 13.7594C35.9392 15.6995 34.8992 16.4595 33.1891 15.4395L30.799 14.0194C30.3689 13.7594 29.6489 13.7594 29.2189 14.0194L26.8288 15.4395C25.1187 16.4495 24.0786 15.6995 24.5287 13.7594L25.0987 11.2993C25.1887 10.8193 24.9987 10.1692 24.6687 9.83922L22.6786 7.84913C21.5085 6.67907 21.8885 5.49902 23.5186 5.219L26.0687 4.79898C26.4988 4.72898 27.0088 4.34896 27.1988 3.95894L28.6089 1.13881C29.3789 -0.381265 30.619 -0.381265 31.389 1.14881Z" fill="#F1CC0F"/>
<path d="M53.39 1.14881L54.8001 3.96894C54.9901 4.35896 55.5001 4.72898 55.9302 4.80898L58.4803 5.229C60.1104 5.49902 60.4904 6.67907 59.3203 7.85913L57.3302 9.84922C57.0002 10.1792 56.8102 10.8293 56.9202 11.2993L57.4902 13.7594C57.9403 15.6995 56.9002 16.4595 55.1901 15.4395L52.8 14.0194C52.37 13.7594 51.65 13.7594 51.2199 14.0194L48.8298 15.4395C47.1197 16.4495 46.0797 15.6995 46.5297 13.7594L47.0997 11.2993C47.1897 10.8193 46.9997 10.1692 46.6697 9.83922L44.6796 7.84913C43.5096 6.67907 43.8896 5.49902 45.5197 5.219L48.0698 4.79898C48.4998 4.72898 49.0098 4.34896 49.1998 3.95894L50.6099 1.13881C51.3799 -0.381265 52.62 -0.381265 53.39 1.14881Z" fill="#F1CC0F"/>
<path d="M75.3891 1.14881L76.7992 3.96894C76.9892 4.35896 77.4992 4.72898 77.9293 4.80898L80.4794 5.229C82.1095 5.49902 82.4895 6.67907 81.3194 7.85913L79.3293 9.84922C78.9993 10.1792 78.8093 10.8293 78.9193 11.2993L79.4893 13.7594C79.9394 15.6995 78.8993 16.4595 77.1892 15.4395L74.7991 14.0194C74.3691 13.7594 73.6491 13.7594 73.219 14.0194L70.8289 15.4395C69.1188 16.4495 68.0788 15.6995 68.5288 13.7594L69.0988 11.2993C69.1888 10.8193 68.9988 10.1692 68.6688 9.83922L66.6787 7.84913C65.5087 6.67907 65.8887 5.49902 67.5188 5.219L70.0689 4.79898C70.4989 4.72898 71.0089 4.34896 71.1989 3.95894L72.609 1.13881C73.379 -0.381265 74.6191 -0.381265 75.3891 1.14881Z" fill="#F1CC0F"/>
</svg>
