<svg width="20" height="20" viewBox="0 0 20 20" fill="none" xmlns="http://www.w3.org/2000/svg">
<path d="M10.0069 8.95833C8.05354 8.95833 6.46521 7.36917 6.46521 5.41667C6.46521 3.46417 8.05354 1.875 10.0069 1.875C11.9602 1.875 13.5485 3.46417 13.5485 5.41667C13.5485 7.36917 11.9602 8.95833 10.0069 8.95833ZM10.0069 3.125C8.74271 3.125 7.71521 4.1525 7.71521 5.41667C7.71521 6.68083 8.74271 7.70833 10.0069 7.70833C11.271 7.70833 12.2985 6.68083 12.2985 5.41667C12.2985 4.1525 11.2702 3.125 10.0069 3.125ZM13.3301 18.125H6.66856C4.65189 18.125 3.54102 17.0209 3.54102 15.0159C3.54102 12.7984 4.79602 10.2083 8.33268 10.2083H11.666C15.2027 10.2083 16.4577 12.7975 16.4577 15.0159C16.4577 17.0209 15.3468 18.125 13.3301 18.125ZM8.33268 11.4583C5.04685 11.4583 4.79102 14.1809 4.79102 15.0159C4.79102 16.3192 5.35273 16.875 6.66856 16.875H13.3301C14.646 16.875 15.2077 16.3192 15.2077 15.0159C15.2077 14.1817 14.9518 11.4583 11.666 11.4583H8.33268Z" fill="white"/>
</svg>
