<svg width="18" height="18" viewBox="0 0 18 18" fill="none" xmlns="http://www.w3.org/2000/svg">
<path d="M7.125 6.00028L13.875 6M7.125 9H9M13.875 9H12M7.125 12H9M13.875 12H12" stroke="#764AF1" stroke-linecap="round" stroke-linejoin="round"/>
<path d="M4.5 6H3C2.17157 6 1.5 6.67157 1.5 7.5V14.25C1.5 15.0784 2.17157 15.75 3 15.75M4.5 6V14.25C4.5 15.0784 3.82843 15.75 3 15.75M4.5 6V3.75C4.5 2.92157 5.17157 2.25 6 2.25H15C15.8285 2.25 16.5 2.92157 16.5 3.75V14.25C16.5 15.0784 15.8285 15.75 15 15.75H3" stroke="#764AF1" stroke-linecap="round" stroke-linejoin="round"/>
</svg>
