<svg width="18" height="18" viewBox="0 0 18 18" fill="none" xmlns="http://www.w3.org/2000/svg">
<path d="M6.375 8.625L8.25 10.5L12 6" stroke="#764AF1" stroke-linecap="round" stroke-linejoin="round"/>
<path d="M15.75 8.28832V4.59244C15.75 4.01119 15.3109 3.52876 14.7413 3.42976C12.4462 3.03081 10.5409 2.14329 9.6114 1.65115C9.23077 1.44961 8.76923 1.44961 8.3886 1.65115C7.45907 2.14329 5.55376 3.03081 3.25867 3.42976C2.68914 3.52876 2.25 4.01119 2.25 4.59244V8.28832C2.25 13.1096 7.15321 15.7394 8.60167 16.4111C8.85727 16.5296 9.14273 16.5296 9.39833 16.4111C10.8468 15.7394 15.75 13.1096 15.75 8.28832Z" stroke="#764AF1" stroke-linecap="round"/>
</svg>
