<svg width="18" height="18" viewBox="0 0 18 18" fill="none" xmlns="http://www.w3.org/2000/svg">
<path d="M2.08579 18C1.73842 18 1.39105 17.9116 1.07211 17.7349C0.401053 17.3618 0 16.6794 0 15.9087V2.09115C0 1.32042 0.401053 0.638051 1.07211 0.264957C1.76842 -0.122864 2.60842 -0.0819546 3.26368 0.368049L13.3058 7.27683C13.8726 7.66628 14.2105 8.30938 14.2105 8.99829C14.2105 9.68721 13.8726 10.3303 13.3058 10.7198L3.26368 17.6318C2.90842 17.8773 2.49789 18 2.08579 18ZM2.09053 1.63624C1.96105 1.63624 1.85842 1.68369 1.81737 1.7066C1.72737 1.7557 1.57895 1.87188 1.57895 2.09115V15.9103C1.57895 16.128 1.72895 16.2442 1.81737 16.2933C1.88684 16.3325 2.13316 16.4438 2.39053 16.2687L12.4326 9.35993C12.6047 9.24048 12.6316 9.08502 12.6316 9.00157C12.6316 8.91811 12.6063 8.76266 12.4326 8.6432L2.39053 1.73115C2.28474 1.65915 2.18053 1.6346 2.09053 1.6346V1.63624Z" fill="#34C759"/>
<path d="M14.7361 17.6319C15.0914 17.8774 15.5019 18.0001 15.914 18.0001C16.2614 18.0001 16.6088 17.9117 16.9277 17.735C17.5988 17.3619 17.9998 16.6795 17.9998 15.9088V2.09124C17.9998 1.32051 17.5988 0.638139 16.9277 0.265045C16.2314 -0.122776 15.3914 -0.0818665 14.7361 0.369773L8.99983 4.31507L10.4272 5.2969L15.6093 1.73124C15.7151 1.65924 15.8193 1.63469 15.9093 1.63469C16.0388 1.63469 16.1414 1.68215 16.1825 1.70506C16.2725 1.75415 16.4209 1.87033 16.4209 2.0896V15.9104C16.4209 16.1281 16.2709 16.2443 16.1825 16.2933C16.113 16.3326 15.8667 16.4439 15.6109 16.2688L5.5672 9.35838C5.3951 9.23893 5.36825 9.08347 5.36825 9.00002C5.36825 8.91656 5.39352 8.76111 5.5672 8.64165L8.99983 6.28036L7.57246 5.29854L4.69404 7.27855C4.1272 7.66801 3.78931 8.3111 3.78931 9.00002C3.78931 9.68893 4.1272 10.332 4.69404 10.7215L4.80773 10.8L14.7361 17.6303V17.6319Z" fill="#30B0C7"/>
</svg>
