<svg width="32" height="32" viewBox="0 0 32 32" fill="none" xmlns="http://www.w3.org/2000/svg">
<path d="M30.6665 5.33325V13.3333H22.6665" stroke="black" stroke-width="2" stroke-linecap="round" stroke-linejoin="round"/>
<path d="M1.3335 26.6667V18.6667H9.3335" stroke="black" stroke-width="2" stroke-linecap="round" stroke-linejoin="round"/>
<path d="M4.68016 12C5.35639 10.0891 6.50567 8.38056 8.02079 7.03391C9.5359 5.68726 11.3675 4.74637 13.3445 4.29903C15.3216 3.85169 17.3798 3.91247 19.3271 4.47572C21.2743 5.03896 23.0472 6.0863 24.4802 7.52002L30.6668 13.3334M1.3335 18.6667L7.52016 24.48C8.95316 25.9137 10.726 26.9611 12.6732 27.5243C14.6205 28.0876 16.6787 28.1484 18.6558 27.701C20.6329 27.2537 22.4644 26.3128 23.9795 24.9661C25.4947 23.6195 26.6439 21.911 27.3202 20" stroke="black" stroke-width="2" stroke-linecap="round" stroke-linejoin="round"/>
</svg>
