<svg width="18" height="18" viewBox="0 0 18 18" fill="none" xmlns="http://www.w3.org/2000/svg">
<path d="M13.0276 12.2035L15.3488 11.4582C16.1876 11.1888 16.3989 10.1196 15.7235 9.56175L13.9061 8.0604M13.0276 12.2035L11.7185 12.6239C11.14 12.8097 10.5935 13.0807 10.098 13.4278L9.09218 14.1324M13.0276 12.2035L13.0744 11.0826C13.1003 10.459 13.227 9.84337 13.4497 9.25875L13.9061 8.0604M13.0276 12.2035L12.9301 14.5456C12.8948 15.394 11.9388 15.8881 11.2065 15.4364L9.09218 14.1324M13.9061 8.0604L14.7427 5.86342C15.0487 5.05999 14.3466 4.23541 13.4871 4.38874L11.0629 4.82121M13.9061 8.0604L12.9907 7.30429C12.5143 6.91084 12.1033 6.44704 11.7721 5.92954L11.0629 4.82121M9.09218 14.1324L7.07803 15.5431C6.37525 16.0354 5.39293 15.5998 5.30447 14.7565L5.05626 12.3906M9.09218 14.1324L7.91955 13.4091C7.40418 13.0912 6.84256 12.8521 6.25399 12.7001L5.05626 12.3906M5.05626 12.3906L2.71492 11.7856C1.86203 11.5652 1.58677 10.5112 2.2264 9.915L3.96585 8.2938M5.05626 12.3906L4.82512 10.1874L3.96585 8.2938M3.96585 8.2938L3.00529 6.17692C2.64919 5.39216 3.30109 4.52599 4.16965 4.62984L6.63902 4.92508M3.96585 8.2938L4.94148 7.38446C5.39438 6.96235 5.77744 6.47344 6.07684 5.93539L6.63902 4.92508M6.63902 4.92508L7.80742 2.82537C8.21962 2.08462 9.29115 2.05255 9.7485 2.76728L11.0629 4.82121M6.63902 4.92508L8.03557 5.09206C8.63445 5.16367 9.24098 5.14623 9.83453 5.04034L11.0629 4.82121" stroke="#764AF1" stroke-linejoin="round"/>
</svg>
