<svg width="18" height="18" viewBox="0 0 18 18" fill="none" xmlns="http://www.w3.org/2000/svg">
<path d="M13.0935 6.81011L12.8752 6.42464C12.7101 6.13312 12.6275 5.98736 12.4871 5.92923C12.3467 5.87111 12.1877 5.91697 11.87 6.0087L11.3303 6.16337C11.1275 6.21095 10.9147 6.18396 10.7294 6.08714L10.5804 5.99967C10.4216 5.89618 10.2995 5.74358 10.2318 5.56422L10.0841 5.1154C9.987 4.81839 9.9384 4.66988 9.82283 4.58494C9.70725 4.5 9.55365 4.5 9.24653 4.5H8.75348C8.44635 4.5 8.29275 4.5 8.17718 4.58494C8.0616 4.66988 8.013 4.81839 7.91588 5.1154L7.7682 5.56422C7.70055 5.74358 7.57838 5.89618 7.41957 5.99967L7.27057 6.08714C7.08535 6.18396 6.87254 6.21095 6.66969 6.16337L6.12997 6.0087C5.81225 5.91697 5.65339 5.87111 5.51292 5.92923C5.37245 5.98736 5.2899 6.13312 5.12479 6.42464L4.90647 6.81011C4.7517 7.08337 4.67432 7.22 4.68934 7.36546C4.70436 7.51088 4.80795 7.6281 5.01515 7.86255L5.47118 8.38125C5.58264 8.5248 5.66177 8.775 5.66177 8.99992C5.66177 9.225 5.58266 9.47512 5.47119 9.61867L5.01515 10.1374C4.80795 10.3718 4.70436 10.4891 4.68934 10.6345C4.67432 10.78 4.75171 10.9166 4.90647 11.1898L5.12478 11.5753C5.28989 11.8668 5.37245 12.0126 5.51292 12.0707C5.65339 12.1288 5.81225 12.083 6.12998 11.9912L6.66967 11.8366C6.87255 11.7889 7.08541 11.816 7.27064 11.9128L7.41963 12.0003C7.57845 12.1038 7.70055 12.2564 7.7682 12.4357L7.91588 12.8846C8.013 13.1816 8.0616 13.3301 8.17718 13.415C8.29275 13.5 8.44635 13.5 8.75348 13.5H9.24653C9.55365 13.5 9.70725 13.5 9.82283 13.415C9.9384 13.3301 9.987 13.1816 10.0841 12.8846L10.2318 12.4357C10.2995 12.2564 10.4216 12.1038 10.5804 12.0003L10.7294 11.9128C10.9146 11.816 11.1275 11.7889 11.3303 11.8366L11.87 11.9912C12.1877 12.083 12.3466 12.1288 12.4871 12.0707C12.6275 12.0126 12.7101 11.8668 12.8753 11.5753L13.0935 11.1898C13.2483 10.9166 13.3257 10.78 13.3106 10.6345C13.2956 10.4891 13.1921 10.3718 12.9848 10.1374L12.5288 9.61867C12.4173 9.47512 12.3383 9.225 12.3383 8.99992C12.3383 8.775 12.4174 8.5248 12.5288 8.38125L12.9848 7.86255C13.1921 7.6281 13.2956 7.51088 13.3106 7.36546C13.3257 7.22 13.2483 7.08337 13.0935 6.81011Z" stroke="#764AF1" stroke-linecap="round"/>
<path d="M9 10.3125C9.72487 10.3125 10.3125 9.72487 10.3125 9C10.3125 8.27513 9.72487 7.6875 9 7.6875C8.27513 7.6875 7.6875 8.27513 7.6875 9C7.6875 9.72487 8.27513 10.3125 9 10.3125Z" stroke="#764AF1"/>
<path d="M14.25 1.5V3.64393C12.8972 2.31774 11.0441 1.5 9 1.5C4.85786 1.5 1.5 4.85786 1.5 9C1.5 10.0666 1.72267 11.0813 2.12407 12M3.75 16.5V14.356C5.10281 15.6823 6.95591 16.5 9 16.5C13.1421 16.5 16.5 13.1421 16.5 9C16.5 7.93335 16.2773 6.91869 15.8759 6" stroke="#764AF1" stroke-linecap="round" stroke-linejoin="round"/>
</svg>
