<svg width="18" height="18" viewBox="0 0 18 18" fill="none" xmlns="http://www.w3.org/2000/svg">
<path d="M13.1082 6.00004C13.1193 5.87652 13.125 5.75142 13.125 5.625C13.125 3.34682 11.2782 1.5 9 1.5C6.84243 1.5 5.07175 3.15646 4.89032 5.26702M13.1082 6.00004C13.0463 6.68758 12.8156 7.32647 12.4579 7.875M13.1082 6.00004C14.9756 5.99093 16.5 7.5054 16.5 9.375C16.5 10.4275 15.75 11.625 15 12M4.89032 5.26702C2.98799 5.44805 1.5 7.05026 1.5 9C1.5 10.2269 2.08916 11.3104 3 12M4.89032 5.26702C5.0087 5.25576 5.12867 5.25 5.25 5.25C6.09437 5.25 6.87355 5.52907 7.50037 6" stroke="#764AF1" stroke-linecap="round" stroke-linejoin="round"/>
<path d="M5.34766 13.25C5.56958 14.8864 6.86362 16.1804 8.5 16.4023V16.5283C6.79446 16.3048 5.44416 14.9555 5.2207 13.25H5.34766ZM12.7793 13.25C12.5558 14.9555 11.2055 16.3048 9.5 16.5283V16.4023C11.1364 16.1804 12.4304 14.8864 12.6523 13.25H12.7793ZM7.91016 13.0723L7.83008 13.168L7.80957 13.1475L7.89746 13.0596L7.91016 13.0723ZM10.2275 12.0488L9.35156 13.0996L9.2627 13.0107L10.1318 11.9688L10.2275 12.0488ZM9.5 8.9707C11.2056 9.19417 12.5558 10.5444 12.7793 12.25H12.6523C12.4304 10.6136 11.1364 9.31855 9.5 9.09668V8.9707ZM8.5 9.09668C6.86356 9.31855 5.56958 10.6136 5.34766 12.25H5.2207C5.44417 10.5444 6.7944 9.19417 8.5 8.9707V9.09668Z" stroke="#764AF1"/>
</svg>
