<svg width="18" height="18" viewBox="0 0 18 18" fill="none" xmlns="http://www.w3.org/2000/svg">
<path d="M13.1082 6.00004C13.1138 6.00001 13.1194 6 13.125 6C14.989 6 16.5 7.51102 16.5 9.375C16.5 11.239 14.989 12.75 13.125 12.75H5.25C3.17893 12.75 1.5 11.071 1.5 9C1.5 7.05026 2.98799 5.44805 4.89032 5.26702M13.1082 6.00004C13.1193 5.87652 13.125 5.75142 13.125 5.625C13.125 3.34682 11.2782 1.5 9 1.5C6.84243 1.5 5.07175 3.15646 4.89032 5.26702M13.1082 6.00004C13.0315 6.85087 12.6964 7.6272 12.1821 8.25M4.89032 5.26702C5.0087 5.25576 5.12867 5.25 5.25 5.25C6.09437 5.25 6.87355 5.52907 7.50037 6" stroke="#764AF1" stroke-linecap="round" stroke-linejoin="round"/>
<path d="M10.5 15.5625V14.625H9M10.5 15.5625V16.5H7.5V15.5625M10.5 15.5625H14.25M9 14.625H7.5V15.5625M9 14.625V12.75M7.5 15.5625H3.75" stroke="#764AF1" stroke-linecap="round" stroke-linejoin="round"/>
</svg>
