<svg width="18" height="18" viewBox="0 0 18 18" fill="none" xmlns="http://www.w3.org/2000/svg">
<g clip-path="url(#clip0_2707_1287)">
<path d="M5.11588 7.68796C5.11588 7.90142 5.13957 8.0745 5.18101 8.20142C5.22838 8.32835 5.28759 8.46681 5.37049 8.61681C5.40009 8.66296 5.41193 8.70912 5.41193 8.7495C5.41193 8.80719 5.37641 8.86488 5.29943 8.92258L4.92641 9.16489C4.87312 9.1995 4.81983 9.21681 4.77246 9.21681C4.71325 9.21681 4.65404 9.18796 4.59483 9.13604C4.51193 9.0495 4.44088 8.95719 4.38167 8.86488C4.32246 8.76681 4.26325 8.65719 4.19812 8.5245C3.73628 9.05527 3.15601 9.32065 2.45733 9.32065C1.95996 9.32065 1.56325 9.18219 1.27312 8.90527C0.982987 8.62835 0.834961 8.25912 0.834961 7.79758C0.834961 7.30719 1.01259 6.90912 1.37378 6.60912C1.73496 6.30912 2.21457 6.15912 2.82443 6.15912C3.02575 6.15912 3.23299 6.17642 3.45207 6.20527C3.67114 6.23412 3.89614 6.28027 4.13299 6.33219V5.91104C4.13299 5.47258 4.03825 5.16681 3.8547 4.98796C3.66522 4.80912 3.34549 4.72258 2.88957 4.72258C2.68233 4.72258 2.46917 4.74565 2.25009 4.79758C2.03101 4.8495 1.81786 4.91296 1.61062 4.99373C1.51588 5.03412 1.44483 5.05719 1.40338 5.06873C1.36193 5.08027 1.33233 5.08604 1.30865 5.08604C1.22575 5.08604 1.1843 5.02835 1.1843 4.90719V4.6245C1.1843 4.53219 1.19615 4.46296 1.22575 4.42258C1.25536 4.38219 1.30865 4.34181 1.39154 4.30142C1.59878 4.19758 1.84746 4.11104 2.13759 4.04181C2.42772 3.96681 2.73562 3.93219 3.06128 3.93219C3.76588 3.93219 4.28101 4.08796 4.61259 4.3995C4.93825 4.71104 5.10404 5.18412 5.10404 5.81873V7.68796H5.11588ZM2.71193 8.56488C2.90733 8.56488 3.10864 8.53027 3.3218 8.46104C3.53496 8.39181 3.72443 8.26488 3.8843 8.09181C3.97904 7.98219 4.05009 7.86104 4.08562 7.72258C4.12114 7.58412 4.14483 7.41681 4.14483 7.22065V6.97835C3.97312 6.93796 3.78957 6.90335 3.60009 6.88027C3.41062 6.85719 3.22707 6.84565 3.04351 6.84565C2.6468 6.84565 2.35667 6.92065 2.16128 7.07642C1.96588 7.23219 1.87115 7.45142 1.87115 7.73989C1.87115 8.01104 1.9422 8.21296 2.09022 8.35142C2.23233 8.49565 2.43957 8.56488 2.71193 8.56488ZM7.46654 9.18796C7.35996 9.18796 7.28891 9.17065 7.24154 9.13027C7.19417 9.09565 7.15272 9.01488 7.1172 8.90527L5.72575 4.44565C5.69022 4.33027 5.67246 4.25527 5.67246 4.21489C5.67246 4.12258 5.71983 4.07065 5.81457 4.07065H6.39483C6.50733 4.07065 6.5843 4.08796 6.62575 4.12835C6.67312 4.16296 6.70864 4.24373 6.74417 4.35335L7.73891 8.17258L8.66259 4.35335C8.6922 4.23796 8.72772 4.16296 8.77509 4.12835C8.82246 4.09373 8.90535 4.07065 9.01193 4.07065H9.48562C9.59812 4.07065 9.67509 4.08796 9.72246 4.12835C9.76983 4.16296 9.81128 4.24373 9.83496 4.35335L10.7705 8.21873L11.7948 4.35335C11.8304 4.23796 11.8718 4.16296 11.9132 4.12835C11.9606 4.09373 12.0376 4.07065 12.1442 4.07065H12.6948C12.7896 4.07065 12.8429 4.11681 12.8429 4.21489C12.8429 4.24373 12.8369 4.27258 12.831 4.30719C12.8251 4.34181 12.8132 4.38796 12.7896 4.45142L11.3626 8.91104C11.3271 9.02642 11.2856 9.10142 11.2382 9.13604C11.1909 9.17065 11.1139 9.19373 11.0132 9.19373H10.504C10.3915 9.19373 10.3146 9.17642 10.2672 9.13604C10.2198 9.09565 10.1784 9.02065 10.1547 8.90527L9.23693 5.18412L8.32509 8.8995C8.29549 9.01488 8.25996 9.08988 8.21259 9.13027C8.16522 9.17065 8.08233 9.18796 7.97575 9.18796H7.46654ZM15.0751 9.34373C14.7672 9.34373 14.4593 9.30912 14.1632 9.23988C13.8672 9.17065 13.6363 9.09565 13.4823 9.00912C13.3876 8.95719 13.3225 8.8995 13.2988 8.84758C13.2751 8.79565 13.2632 8.73796 13.2632 8.68604V8.39181C13.2632 8.27065 13.3106 8.21296 13.3994 8.21296C13.435 8.21296 13.4705 8.21873 13.506 8.23027C13.5415 8.24181 13.5948 8.26488 13.654 8.28796C13.8554 8.3745 14.0744 8.44373 14.3054 8.48988C14.5422 8.53604 14.7731 8.55912 15.01 8.55912C15.383 8.55912 15.6731 8.49565 15.8744 8.36873C16.0757 8.24181 16.1823 8.05719 16.1823 7.82065C16.1823 7.65912 16.129 7.52642 16.0225 7.41681C15.9159 7.30719 15.7146 7.20912 15.4244 7.11681L14.5659 6.85719C14.1336 6.7245 13.8139 6.52835 13.6185 6.26873C13.4231 6.01488 13.3225 5.73219 13.3225 5.43219C13.3225 5.18988 13.3757 4.97642 13.4823 4.79181C13.5889 4.60719 13.731 4.44565 13.9086 4.31873C14.0863 4.18604 14.2876 4.08796 14.5244 4.01873C14.7613 3.9495 15.01 3.92065 15.2705 3.92065C15.4007 3.92065 15.5369 3.92642 15.6672 3.94373C15.8034 3.96104 15.9277 3.98412 16.0521 4.00719C16.1705 4.03604 16.283 4.06489 16.3896 4.0995C16.4961 4.13412 16.579 4.16873 16.6382 4.20335C16.7211 4.2495 16.7804 4.29565 16.8159 4.34758C16.8514 4.39373 16.8692 4.45719 16.8692 4.53796V4.80912C16.8692 4.93027 16.8218 4.99373 16.733 4.99373C16.6856 4.99373 16.6086 4.97065 16.508 4.9245C16.1705 4.7745 15.7915 4.6995 15.3711 4.6995C15.0336 4.6995 14.7672 4.75142 14.5836 4.86104C14.4001 4.97065 14.3054 5.13796 14.3054 5.3745C14.3054 5.53604 14.3646 5.6745 14.483 5.78412C14.6014 5.89373 14.8205 6.00335 15.1343 6.10142L15.9751 6.36104C16.4014 6.49373 16.7093 6.67835 16.8929 6.91489C17.0764 7.15142 17.1652 7.42258 17.1652 7.72258C17.1652 7.97065 17.1119 8.19565 17.0113 8.39181C16.9047 8.58796 16.7626 8.76104 16.579 8.8995C16.3955 9.04373 16.1764 9.14758 15.9218 9.22258C15.6554 9.30335 15.3771 9.34373 15.0751 9.34373Z" fill="#764AF1"/>
<path fill-rule="evenodd" clip-rule="evenodd" d="M16.1942 12.1476C14.2462 13.5495 11.4159 14.2937 8.98235 14.2937C5.57182 14.2937 2.4988 13.0649 0.177746 11.0226C-0.00580624 10.861 0.159983 10.6418 0.379062 10.7687C2.88959 12.188 5.9863 13.0476 9.18959 13.0476C11.3508 13.0476 13.7251 12.6091 15.91 11.7091C16.2356 11.5649 16.5139 11.9168 16.1942 12.1476Z" fill="#764AF1"/>
<path fill-rule="evenodd" clip-rule="evenodd" d="M17.0055 11.2476C16.7568 10.9361 15.3594 11.0976 14.7258 11.1726C14.5364 11.1957 14.5068 11.0342 14.6785 10.913C15.7916 10.1515 17.6212 10.3707 17.8344 10.6246C18.0476 10.8842 17.7752 12.6669 16.7331 13.5207C16.5732 13.6534 16.4193 13.5842 16.4903 13.4111C16.7272 12.8399 17.2541 11.5534 17.0055 11.2476Z" fill="#764AF1"/>
</g>
<defs>
<clipPath id="clip0_2707_1287">
<rect width="18" height="10.5" fill="white" transform="translate(0 3.85718)"/>
</clipPath>
</defs>
</svg>
